# xmcd
# Track frame offsets:
# 150
# 18060
# 35207
# 50780
# 68407
# 81747
# 97202
# 115347
# 132177
# 148472
#
# Disc length: 2274 seconds
# Revision: 0
# Processed by: cddbd v1.4PL0 Copyright (c) Steve Scherf et al.
# Submitted via: VisiTrax 2.9.5.180 - For more info visit www.synapsa.com
#
DISCID=9908e00a
DTITLE=Joannah McKee - I remember
DYEAR=1900
DGENRE=
TTITLE0=Here comes those memories
TTITLE1=Highway 101
TTITLE2=Yellow moon
TTITLE3=I remember
TTITLE4=My heart's been lonely too long
TTITLE5=Down on second street
TTITLE6=Right here
TTITLE7=Let me go
TTITLE8=I know
TTITLE9=Walk with me
EXTD=
EXTT0=
EXTT1=
EXTT2=
EXTT3=
EXTT4=
EXTT5=
EXTT6=
EXTT7=
EXTT8=
EXTT9=
PLAYORDER=
